<?xml version="1.0" encoding="UTF-8"?>
<svg xmlns="http://www.w3.org/2000/svg" xmlns:xlink="http://www.w3.org/1999/xlink" width="715pt" height="227pt" viewBox="0 0 715 227" version="1.1">
<g id="surface1">
<path style=" stroke:none;fill-rule:evenodd;fill:rgb(17.599487%,21.598816%,58.399963%);fill-opacity:1;" d="M 357.40625 0.542969 C 554.34375 0.542969 714.050781 51.027344 714.050781 113.28125 C 714.050781 175.535156 554.34375 226.019531 357.40625 226.019531 C 160.472656 226.019531 0.765625 175.535156 0.765625 113.28125 C 0.765625 51.027344 160.472656 0.542969 357.40625 0.542969 "/>
<path style="fill:none;stroke-width:2.16;stroke-linecap:butt;stroke-linejoin:miter;stroke:rgb(13.699341%,12.199402%,12.5%);stroke-opacity:1;stroke-miterlimit:22.9256;" d="M 3574.0625 2264.570313 C 5543.4375 2264.570313 7140.507813 1759.726563 7140.507813 1137.1875 C 7140.507813 514.648438 5543.4375 9.804688 3574.0625 9.804688 C 1604.726563 9.804688 7.65625 514.648438 7.65625 1137.1875 C 7.65625 1759.726563 1604.726563 2264.570313 3574.0625 2264.570313 Z M 3574.0625 2264.570313 " transform="matrix(0.1,0,0,-0.1,0,227)"/>
<path style=" stroke:none;fill-rule:evenodd;fill:rgb(100%,100%,100%);fill-opacity:1;" d="M 93.136719 59.519531 L 135.800781 59.519531 C 133.242188 92.246094 137.164063 118.496094 150.554688 135.277344 L 178.863281 59.519531 L 223.121094 59.519531 L 187.410156 162.390625 L 115.761719 162.390625 C 95.992188 138.734375 88.453125 104.441406 93.136719 59.519531 "/>
<path style="fill:none;stroke-width:2.16;stroke-linecap:butt;stroke-linejoin:miter;stroke:rgb(13.699341%,12.199402%,12.5%);stroke-opacity:1;stroke-miterlimit:22.9256;" d="M 931.367188 1674.804688 L 1358.007813 1674.804688 C 1332.421875 1347.539063 1371.640625 1085.039063 1505.546875 917.226563 L 1788.632813 1674.804688 L 2231.210938 1674.804688 L 1874.101563 646.09375 L 1157.617188 646.09375 C 959.921875 882.65625 884.53125 1225.585938 931.367188 1674.804688 Z M 931.367188 1674.804688 " transform="matrix(0.1,0,0,-0.1,0,227)"/>
<path style=" stroke:none;fill-rule:evenodd;fill:rgb(100%,100%,100%);fill-opacity:1;" d="M 233.488281 59.519531 L 275.753906 59.519531 L 268.378906 119.726563 C 267.484375 132.949219 272.785156 134.25 276.308594 134.25 C 279.828125 134.25 287.839844 133.304688 289.707031 120.082031 L 298.082031 59.519531 L 338.75 59.519531 L 324.398438 165.179688 L 283.328125 165.179688 C 262.796875 169.898438 247.976563 168.902344 238.871094 162.191406 C 229.765625 155.480469 226.378906 143.050781 228.703125 124.910156 L 232.785156 92.199219 L 222.722656 92.214844 L 233.488281 59.519531 "/>
<path style="fill:none;stroke-width:2.16;stroke-linecap:butt;stroke-linejoin:miter;stroke:rgb(13.699341%,12.199402%,12.5%);stroke-opacity:1;stroke-miterlimit:22.9256;" d="M 2334.882813 1674.804688 L 2757.539063 1674.804688 L 2683.789063 1072.734375 C 2674.84375 940.507813 2727.851563 927.5 2763.085938 927.5 C 2798.28125 927.5 2878.398438 936.953125 2897.070313 1069.179688 L 2980.820313 1674.804688 L 3387.5 1674.804688 L 3243.984375 618.203125 L 2833.28125 618.203125 C 2627.96875 571.015625 2479.765625 580.976563 2388.710938 648.085938 C 2297.65625 715.195313 2263.789063 839.492188 2287.03125 1020.898438 L 2327.851563 1348.007813 L 2227.226563 1347.851563 Z M 2334.882813 1674.804688 " transform="matrix(0.1,0,0,-0.1,0,227)"/>
<path style=" stroke:none;fill-rule:evenodd;fill:rgb(100%,100%,100%);fill-opacity:1;" d="M 351.511719 59.425781 L 394.726563 59.425781 L 386.933594 126.367188 L 415.84375 126.324219 C 413.601563 94.324219 426.039063 76.757813 439.890625 66.398438 C 454.640625 55.371094 487.28125 52.421875 502.785156 64.03125 L 493.238281 94.863281 C 467.90625 87.878906 458.636719 98.117188 455.734375 107.078125 C 453.972656 112.515625 454.449219 117.109375 456.53125 122.234375 C 458.464844 126.996094 462.503906 133.042969 471.800781 133.824219 C 478.640625 134.398438 489.269531 132.3125 502.132813 124.394531 C 503.234375 135.476563 506.640625 145.792969 513.410156 154.988281 C 496.308594 167.058594 477.671875 171.101563 462.070313 170.085938 C 448.308594 169.191406 434.386719 165.027344 424.773438 151.40625 L 423.769531 165.257813 L 338.054688 165.257813 L 351.511719 59.425781 "/>
<path style="fill:none;stroke-width:2.16;stroke-linecap:butt;stroke-linejoin:miter;stroke:rgb(13.699341%,12.199402%,12.5%);stroke-opacity:1;stroke-miterlimit:22.9256;" d="M 3515.117188 1675.742188 L 3947.265625 1675.742188 L 3869.335938 1006.328125 L 4158.4375 1006.757813 C 4136.015625 1326.757813 4260.390625 1502.421875 4398.90625 1606.015625 C 4546.40625 1716.289063 4872.8125 1745.78125 5027.851563 1629.6875 L 4932.382813 1321.367188 C 4679.0625 1391.210938 4586.367188 1288.828125 4557.34375 1199.21875 C 4539.726563 1144.84375 4544.492188 1098.90625 4565.3125 1047.65625 C 4584.648438 1000.039063 4625.039063 939.570313 4718.007813 931.757813 C 4786.40625 926.015625 4892.695313 946.875 5021.328125 1026.054688 C 5032.34375 915.234375 5066.40625 812.070313 5134.101563 720.117188 C 4963.085938 599.414063 4776.71875 558.984375 4620.703125 569.140625 C 4483.085938 578.085938 4343.867188 619.726563 4247.734375 755.9375 L 4237.695313 617.421875 L 3380.546875 617.421875 Z M 3515.117188 1675.742188 " transform="matrix(0.1,0,0,-0.1,0,227)"/>
<path style=" stroke:none;fill-rule:evenodd;fill:rgb(100%,100%,100%);fill-opacity:1;" d="M 546.0625 59.171875 L 551.78125 59.160156 L 547.363281 67.574219 L 535.152344 67.578125 C 531.929688 70.453125 529.054688 73.679688 526.417969 77.144531 L 539.222656 77.144531 L 534.933594 84.929688 L 520.894531 84.910156 C 511.339844 98.355469 511.242188 118.476563 514.414063 130.660156 C 520.46875 153.917969 541.609375 166.191406 552.941406 168.613281 C 569.148438 172.074219 605.144531 173.703125 623.441406 136.394531 C 632.921875 117.070313 634.320313 98.109375 625.09375 78.121094 C 620.988281 69.230469 615.15625 62.96875 608.242188 58.609375 C 593.496094 49.3125 569.449219 44.082031 546.0625 59.171875 "/>
<path style="fill:none;stroke-width:2.16;stroke-linecap:butt;stroke-linejoin:miter;stroke:rgb(13.699341%,12.199402%,12.5%);stroke-opacity:1;stroke-miterlimit:22.9256;" d="M 5460.625 1678.28125 L 5517.8125 1678.398438 L 5473.632813 1594.257813 L 5351.523438 1594.21875 C 5319.296875 1565.46875 5290.546875 1533.203125 5264.179688 1498.554688 L 5392.226563 1498.554688 L 5349.335938 1420.703125 L 5208.945313 1420.898438 C 5113.398438 1286.445313 5112.421875 1085.234375 5144.140625 963.398438 C 5204.6875 730.820313 5416.09375 608.085938 5529.414063 583.867188 C 5691.484375 549.257813 6051.445313 532.96875 6234.414063 906.054688 C 6329.21875 1099.296875 6343.203125 1288.90625 6250.9375 1488.789063 C 6209.882813 1577.695313 6151.5625 1640.3125 6082.421875 1683.90625 C 5934.960938 1776.875 5694.492188 1829.179688 5460.625 1678.28125 Z M 5460.625 1678.28125 " transform="matrix(0.1,0,0,-0.1,0,227)"/>
<path style=" stroke:none;fill-rule:evenodd;fill:rgb(17.599487%,21.598816%,58.399963%);fill-opacity:1;" d="M 582.613281 87.269531 C 597.289063 91.566406 595.28125 106.746094 592.496094 114.636719 C 592.203125 115.460938 591.863281 116.359375 591.441406 117.285156 C 588.710938 123.335938 584.640625 130.644531 577.480469 133.832031 C 571.816406 136.355469 563.269531 136.28125 558.683594 131.558594 C 557.769531 130.617188 556.914063 129.484375 556.140625 128.152344 C 554.585938 125.472656 553.726563 122.222656 553.390625 118.914063 C 552.824219 113.398438 553.703125 107.710938 555.175781 104.203125 C 558.269531 96.835938 566.023438 83.761719 582.613281 87.269531 "/>
<path style="fill:none;stroke-width:2.16;stroke-linecap:butt;stroke-linejoin:miter;stroke:rgb(13.699341%,12.199402%,12.5%);stroke-opacity:1;stroke-miterlimit:22.9256;" d="M 5826.132813 1397.304688 C 5972.890625 1354.335938 5952.8125 1202.539063 5924.960938 1123.632813 C 5922.03125 1115.390625 5918.632813 1106.40625 5914.414063 1097.148438 C 5887.109375 1036.640625 5846.40625 963.554688 5774.804688 931.679688 C 5718.164063 906.445313 5632.695313 907.1875 5586.835938 954.414063 C 5577.695313 963.828125 5569.140625 975.15625 5561.40625 988.476563 C 5545.859375 1015.273438 5537.265625 1047.773438 5533.90625 1080.859375 C 5528.242188 1136.015625 5537.03125 1192.890625 5551.757813 1227.96875 C 5582.695313 1301.640625 5660.234375 1432.382813 5826.132813 1397.304688 Z M 5826.132813 1397.304688 " transform="matrix(0.1,0,0,-0.1,0,227)"/>
<path style=" stroke:none;fill-rule:evenodd;fill:rgb(97.999573%,90.59906%,16.099548%);fill-opacity:1;" d="M 511.582031 49.507813 L 573.867188 49.507813 C 563.683594 50.085938 554.246094 53.113281 545.722656 59.09375 L 511.582031 59.09375 L 511.582031 49.507813 "/>
<path style="fill:none;stroke-width:2.16;stroke-linecap:butt;stroke-linejoin:miter;stroke:rgb(13.699341%,12.199402%,12.5%);stroke-opacity:1;stroke-miterlimit:22.9256;" d="M 5115.820313 1774.921875 L 5738.671875 1774.921875 C 5636.835938 1769.140625 5542.460938 1738.867188 5457.226563 1679.0625 L 5115.820313 1679.0625 Z M 5115.820313 1774.921875 " transform="matrix(0.1,0,0,-0.1,0,227)"/>
<path style=" stroke:none;fill-rule:evenodd;fill:rgb(97.999573%,90.59906%,16.099548%);fill-opacity:1;" d="M 513.949219 67.648438 L 534.628906 67.648438 C 531.28125 70.660156 528.488281 73.789063 526.257813 77.027344 L 513.949219 77.027344 L 513.949219 67.648438 "/>
<path style="fill:none;stroke-width:2.16;stroke-linecap:butt;stroke-linejoin:miter;stroke:rgb(13.699341%,12.199402%,12.5%);stroke-opacity:1;stroke-miterlimit:22.9256;" d="M 5139.492188 1593.515625 L 5346.289063 1593.515625 C 5312.8125 1563.398438 5284.882813 1532.109375 5262.578125 1499.726563 L 5139.492188 1499.726563 Z M 5139.492188 1593.515625 " transform="matrix(0.1,0,0,-0.1,0,227)"/>
<path style=" stroke:none;fill-rule:evenodd;fill:rgb(97.999573%,90.59906%,16.099548%);fill-opacity:1;" d="M 514.953125 84.980469 L 520.648438 84.980469 C 518.609375 87.636719 517.101563 90.691406 515.960938 94.019531 L 514.953125 94.019531 L 514.953125 84.980469 "/>
<path style="fill:none;stroke-width:2.16;stroke-linecap:butt;stroke-linejoin:miter;stroke:rgb(13.699341%,12.199402%,12.5%);stroke-opacity:1;stroke-miterlimit:22.9256;" d="M 5149.53125 1420.195313 L 5206.484375 1420.195313 C 5186.09375 1393.632813 5171.015625 1363.085938 5159.609375 1329.804688 L 5149.53125 1329.804688 Z M 5149.53125 1420.195313 " transform="matrix(0.1,0,0,-0.1,0,227)"/>
<path style=" stroke:none;fill-rule:evenodd;fill:rgb(97.999573%,90.59906%,16.099548%);fill-opacity:1;" d="M 29.3125 149.550781 C 77.394531 197.007813 242.757813 220.320313 350 220.761719 C 461.367188 221.21875 627.84375 202.324219 685.191406 149.550781 L 634.324219 149.457031 C 619.382813 169.785156 600.339844 182.078125 581.992188 184.519531 C 562.128906 187.15625 538.289063 183.648438 519.066406 168 C 503.574219 184.710938 449.082031 191.699219 432.050781 173.699219 L 431.363281 178.675781 L 338.757813 178.566406 L 332.679688 175.773438 C 328.714844 177.695313 322.703125 178.453125 315.761719 178.675781 L 286.785156 178.566406 C 267.78125 185.976563 245.210938 182.027344 228.335938 171.082031 C 220.691406 166.121094 214.820313 159.257813 214.085938 149.550781 L 202.925781 149.550781 C 200.480469 166.554688 193.890625 176.652344 181.242188 176.652344 L 114.730469 176.65625 C 106.925781 173.757813 99.125 164.351563 91.324219 149.550781 L 29.3125 149.550781 "/>
<path style="fill:none;stroke-width:2.16;stroke-linecap:butt;stroke-linejoin:miter;stroke:rgb(13.699341%,12.199402%,12.5%);stroke-opacity:1;stroke-miterlimit:22.9256;" d="M 293.125 774.492188 C 773.945313 299.921875 2427.578125 66.796875 3500 62.382813 C 4613.671875 57.8125 6278.4375 246.757813 6851.914063 774.492188 L 6343.242188 775.429688 C 6193.828125 572.148438 6003.398438 449.21875 5819.921875 424.804688 C 5621.289063 398.4375 5382.890625 433.515625 5190.664063 590 C 5035.742188 422.890625 4490.820313 353.007813 4320.507813 533.007813 L 4313.632813 483.242188 L 3387.578125 484.335938 L 3326.796875 512.265625 C 3287.148438 493.046875 3227.03125 485.46875 3157.617188 483.242188 L 2867.851563 484.335938 C 2677.8125 410.234375 2452.109375 449.726563 2283.359375 559.179688 C 2206.914063 608.789063 2148.203125 677.421875 2140.859375 774.492188 L 2029.257813 774.492188 C 2004.804688 604.453125 1938.90625 503.476563 1812.421875 503.476563 L 1147.304688 503.4375 C 1069.257813 532.421875 991.25 626.484375 913.242188 774.492188 Z M 293.125 774.492188 " transform="matrix(0.1,0,0,-0.1,0,227)"/>
</g>
</svg>
